<?xml version="1.0" encoding="utf-8"?>
<!-- Generator: Adobe Illustrator 23.0.2, SVG Export Plug-In . SVG Version: 6.00 Build 0)  -->
<svg version="1.1" id="Layer_1" xmlns="http://www.w3.org/2000/svg" xmlns:xlink="http://www.w3.org/1999/xlink" x="0px" y="0px"
	 viewBox="0 0 58.6 32" style="enable-background:new 0 0 58.6 32;" xml:space="preserve">
<style type="text/css">
	.st0{fill:#8F2E00;}
</style>
<g>
	<path class="st0" d="M12.2,0.4h6.1L30.4,32h-6.3l-2.5-6.5H8.8L6.3,32H0L12.2,0.4z M15.3,8.8L11,19.6h8.5L15.3,8.8z"/>
	<path class="st0" d="M33.1,8.6h5v2.9c0.5-1.2,1.3-2,2.2-2.6c0.9-0.6,1.9-0.9,3-0.9c0.8,0,1.6,0.2,2.4,0.6l-1.8,5
		c-0.7-0.3-1.3-0.5-1.7-0.5c-0.9,0-1.7,0.6-2.3,1.7c-0.6,1.1-0.9,3.3-0.9,6.6l0,1.1V32h-5.8V8.6z"/>
	<path class="st0" d="M49.2,0h5.9v8.6h3.5v5h-3.5V32h-5.9V13.7h-3v-5h3V0z"/>
</g>
</svg>
