<?xml version="1.0" encoding="utf-8"?>
<!-- Generator: Adobe Illustrator 23.0.2, SVG Export Plug-In . SVG Version: 6.00 Build 0)  -->
<svg version="1.1" id="Layer_1" xmlns="http://www.w3.org/2000/svg" xmlns:xlink="http://www.w3.org/1999/xlink" x="0px" y="0px"
	 viewBox="0 0 58.8 33.6" style="enable-background:new 0 0 58.8 33.6;" xml:space="preserve">
<style type="text/css">
	.st0{fill:#8F2E00;}
</style>
<g>
	<path class="st0" d="M0,33V1.4h5c2.9,0,5,0.2,6.3,0.6c1.9,0.5,3.4,1.4,4.5,2.8s1.7,3,1.7,4.8c0,1.2-0.3,2.3-0.8,3.3
		c-0.5,1-1.3,1.9-2.5,2.8c1.9,0.9,3.3,2,4.2,3.4c0.9,1.4,1.3,3,1.3,4.8c0,1.8-0.5,3.4-1.4,4.9c-0.9,1.5-2.1,2.6-3.5,3.3
		c-1.4,0.7-3.4,1.1-6,1.1H0z M6,7.1v6.7h1.3c1.5,0,2.6-0.3,3.3-0.9c0.7-0.6,1.1-1.5,1.1-2.5c0-1-0.3-1.8-1-2.4
		C10,7.4,8.9,7.1,7.6,7.1H6z M6,19.2v8.1h1.5c2.5,0,4.2-0.3,5-0.9c0.9-0.6,1.3-1.5,1.3-2.8c0-1.4-0.5-2.4-1.5-3.2
		c-1-0.8-2.7-1.2-5.1-1.2H6z"/>
	<path class="st0" d="M27.2,0c1,0,1.9,0.4,2.6,1.1c0.7,0.7,1.1,1.6,1.1,2.7c0,1-0.4,1.9-1.1,2.7c-0.7,0.7-1.6,1.1-2.6,1.1
		c-1,0-1.9-0.4-2.7-1.1s-1.1-1.7-1.1-2.7c0-1,0.4-1.9,1.1-2.6C25.3,0.4,26.1,0,27.2,0z M24.2,9.6h5.9V33h-5.9V9.6z"/>
	<path class="st0" d="M46.4,9c2.2,0,4.3,0.6,6.2,1.7s3.5,2.6,4.5,4.5c1.1,1.9,1.6,3.9,1.6,6.1c0,2.2-0.5,4.3-1.6,6.2
		c-1.1,1.9-2.6,3.4-4.5,4.5c-1.9,1.1-4,1.6-6.3,1.6c-3.4,0-6.2-1.2-8.6-3.6c-2.4-2.4-3.6-5.3-3.6-8.7c0-3.6,1.3-6.7,4-9.1
		C40.6,10.1,43.3,9,46.4,9z M46.5,14.5c-1.8,0-3.3,0.6-4.6,1.9s-1.8,2.9-1.8,4.9c0,2,0.6,3.7,1.8,4.9s2.7,1.9,4.6,1.9
		s3.4-0.6,4.6-1.9c1.2-1.3,1.8-2.9,1.8-4.9c0-2-0.6-3.6-1.8-4.9C49.9,15.2,48.4,14.5,46.5,14.5z"/>
</g>
</svg>
