<?xml version="1.0" encoding="utf-8"?>
<!-- Generator: Adobe Illustrator 23.0.2, SVG Export Plug-In . SVG Version: 6.00 Build 0)  -->
<svg version="1.1" id="Layer_1" xmlns="http://www.w3.org/2000/svg" xmlns:xlink="http://www.w3.org/1999/xlink" x="0px" y="0px"
	 viewBox="0 0 170.2 33.2" style="enable-background:new 0 0 170.2 33.2;" xml:space="preserve">
<style type="text/css">
	.st0{fill:#FFFFFF;}
</style>
<g>
	<path class="st0" d="M30.6,6.3l-4.2,4c-2.9-3-6.1-4.5-9.7-4.5c-3,0-5.6,1-7.6,3.1S6,13.5,6,16.5c0,2.1,0.5,4,1.4,5.6
		c0.9,1.6,2.2,2.9,3.9,3.8c1.7,0.9,3.5,1.4,5.6,1.4c1.7,0,3.3-0.3,4.8-1c1.4-0.7,3-1.8,4.8-3.6l4.1,4.3c-2.3,2.3-4.5,3.9-6.6,4.7
		s-4.4,1.3-7.1,1.3c-4.9,0-8.9-1.6-12.1-4.7S0,21.4,0,16.5c0-3.2,0.7-6,2.1-8.4s3.5-4.4,6.1-5.9S13.8,0,16.8,0
		c2.6,0,5.1,0.5,7.5,1.7S28.9,4.3,30.6,6.3z"/>
	<path class="st0" d="M46.2,8.4c2.2,0,4.3,0.6,6.2,1.7s3.5,2.6,4.5,4.5c1.1,1.9,1.6,3.9,1.6,6.1c0,2.2-0.5,4.3-1.6,6.2
		c-1.1,1.9-2.6,3.4-4.5,4.5s-4,1.6-6.3,1.6c-3.4,0-6.2-1.2-8.6-3.6c-2.4-2.4-3.6-5.3-3.6-8.7c0-3.7,1.3-6.7,4-9.1
		C40.5,9.5,43.2,8.4,46.2,8.4z M46.3,13.9c-1.8,0-3.3,0.6-4.6,1.9s-1.8,2.9-1.8,4.9c0,2,0.6,3.7,1.8,4.9s2.7,1.9,4.6,1.9
		s3.4-0.6,4.6-1.9c1.2-1.3,1.8-2.9,1.8-4.9c0-2-0.6-3.6-1.8-4.9C49.7,14.6,48.2,13.9,46.3,13.9z"/>
	<path class="st0" d="M63.4,9h5.9v2.4c1.3-1.1,2.5-1.9,3.6-2.3c1.1-0.4,2.2-0.7,3.3-0.7c2.3,0,4.3,0.8,5.9,2.4c1.4,1.4,2,3.4,2,6.1
		v15.4h-5.8V22.2c0-2.8-0.1-4.6-0.4-5.6c-0.3-0.9-0.7-1.6-1.3-2.1c-0.6-0.5-1.4-0.7-2.3-0.7c-1.2,0-2.2,0.4-3.1,1.2
		s-1.4,1.9-1.8,3.3c-0.2,0.7-0.3,2.3-0.3,4.7v9.4h-5.9V9z"/>
	<path class="st0" d="M90.5,0.4h5.9V9h3.5v5h-3.5v18.3h-5.9V14.1h-3V9h3V0.4z"/>
	<path class="st0" d="M120.2,9h5.9v23.4h-5.9v-2.5c-1.1,1.1-2.3,1.9-3.4,2.4S114.4,33,113,33c-3,0-5.6-1.2-7.8-3.5
		c-2.2-2.3-3.3-5.3-3.3-8.7c0-3.6,1.1-6.6,3.2-8.9c2.1-2.3,4.7-3.5,7.8-3.5c1.4,0,2.7,0.3,3.9,0.8c1.2,0.5,2.4,1.3,3.4,2.4V9z
		 M114,13.8c-1.8,0-3.3,0.6-4.5,1.9s-1.8,2.9-1.8,4.9c0,2,0.6,3.7,1.8,5c1.2,1.3,2.7,2,4.5,2c1.8,0,3.4-0.6,4.6-1.9s1.8-3,1.8-5
		c0-2-0.6-3.7-1.8-4.9S115.9,13.8,114,13.8z"/>
	<path class="st0" d="M154.9,13.7l-4.9,2.7c-0.9-1-1.8-1.6-2.7-2c-0.9-0.4-1.9-0.6-3.2-0.6c-2.2,0-4,0.7-5.3,2c-1.4,1.3-2,3-2,5
		c0,2,0.7,3.6,2,4.9c1.3,1.3,3,1.9,5.1,1.9c2.6,0,4.7-0.9,6.1-2.7l4.6,3.2c-2.5,3.3-6,4.9-10.6,4.9c-4.1,0-7.3-1.2-9.7-3.7
		c-2.3-2.4-3.5-5.3-3.5-8.5c0-2.3,0.6-4.3,1.7-6.3s2.7-3.4,4.7-4.5c2-1.1,4.3-1.6,6.8-1.6c2.3,0,4.4,0.5,6.3,1.4
		C152.2,10.7,153.7,12,154.9,13.7z"/>
	<path class="st0" d="M160.9,0.4h5.9V9h3.5v5h-3.5v18.3h-5.9V14.1h-3V9h3V0.4z"/>
</g>
</svg>
