<?xml version="1.0" encoding="utf-8"?>
<!-- Generator: Adobe Illustrator 23.0.2, SVG Export Plug-In . SVG Version: 6.00 Build 0)  -->
<svg version="1.1" id="Layer_1" xmlns="http://www.w3.org/2000/svg" xmlns:xlink="http://www.w3.org/1999/xlink" x="0px" y="0px"
	 viewBox="0 0 40.5 40.5" style="enable-background:new 0 0 40.5 40.5;" xml:space="preserve">
<style type="text/css">
	.st0{fill:#FFBD38;}
	.st1{fill:#FFFFFF;}
</style>
<circle class="st0" cx="20" cy="21.4" r="20"/>
<g>
	<path class="st1" d="M20.1,15.7c0,0-0.1,8.3,0,11h2.8c0,0-0.1-0.8-0.1-1.5s0-8.3,0-8.3s0.1-1,0.1-1.2L20.1,15.7z"/>
	<path class="st1" d="M24,18.1c0,0,0.4-0.1,0.8-0.1c0.2,0,0.4,0,0.4,0v5.2c0,0,0,1.3,0.4,2.2c0.4,0.8,1.1,1.4,2.6,1.4
		c0.5,0,1.3,0,2.2-0.5v-2.5c0,0-0.6,0.4-1.4,0.4s-1.1-1-1.1-1.5c0-0.5,0-4.8,0-4.8h1.6c0,0,0.3,0,0.5,0v-2.4H28v-1.3
		c0,0,0-0.6,0.1-0.8h-2.9c0,0,0,0.5,0,0.7c0,0.2,0,1.4,0,1.4H24V18.1z"/>
	<ellipse class="st1" cx="21.5" cy="11.9" rx="1.7" ry="1.9"/>
	<path class="st1" d="M18.8,15.6c0,0-1.4,0.6-2.7,0.6c0,0-0.8-0.6-2.2-0.6c0,0-1.8-0.1-3.1,1.2c-0.6,0.6-1.1,1.4-1.1,2.9
		c0,2.7,2.1,3.6,2.1,3.6s-0.8,0.2-0.8,1.8c0,1.2,0.9,1.6,0.9,1.6S9.5,27,9.5,29.5s2.1,3.3,4.7,3.3s4.7-0.9,4.7-3.9
		c0-2.5-3-2.8-3.3-2.9c-0.3-0.1-1.1-0.1-1.5-0.6c-0.3-0.4-0.3-0.5-0.3-0.7c0-0.2,0.1-0.8,0.6-0.9c0.5-0.1,1.6-0.1,2.6-1.3
		c1.1-1.1,1.2-2.6,1.2-3s-0.2-1.1-0.2-1.1s0.6,0,1-0.3V15.6z M14.1,28c0,0,2.1-0.1,2.1,1.3c0,1.5-2.1,1.3-2.1,1.3s-2,0.1-2-1.3
		C12.1,27.8,14.1,28,14.1,28z M13.9,21.4c-1.7,0-1.6-1.7-1.6-1.7s-0.1-1.9,1.5-1.9s1.5,1.9,1.5,1.9S15.6,21.4,13.9,21.4z"/>
</g>
</svg>
