<?xml version="1.0" encoding="utf-8"?>
<!-- Generator: Adobe Illustrator 23.0.2, SVG Export Plug-In . SVG Version: 6.00 Build 0)  -->
<svg version="1.1" id="Layer_1" xmlns="http://www.w3.org/2000/svg" xmlns:xlink="http://www.w3.org/1999/xlink" x="0px" y="0px"
	 viewBox="0 0 40 40" style="enable-background:new 0 0 40 40;" xml:space="preserve">
<style type="text/css">
	.st0{fill:#FFBD38;}
	.st1{fill:#FFFFFF;}
</style>
<g>
	<circle class="st0" cx="20" cy="20" r="20"/>
	<g>
		<g>
			<path class="st1" d="M19,19.3h-4.7c-0.5,0-0.9-0.4-0.9-0.9s0.4-0.9,0.9-0.9H19c0.5,0,0.9,0.4,0.9,0.9S19.5,19.3,19,19.3z"/>
			<path class="st1" d="M22.3,23.2h-8c-0.5,0-0.9-0.4-0.9-0.9s0.4-0.9,0.9-0.9h8c0.5,0,0.9,0.4,0.9,0.9S22.8,23.2,22.3,23.2z"/>
			<path class="st1" d="M22.3,27h-8c-0.5,0-0.9-0.4-0.9-0.9s0.4-0.9,0.9-0.9h8c0.5,0,0.9,0.4,0.9,0.9S22.8,27,22.3,27z"/>
			<path class="st1" d="M25.9,16.6l-4.4-4.3c-0.1-0.1-0.3-0.2-0.5-0.2h-7.5c-1.7,0-3,1.4-3,3v13.1c0,1.7,1.4,3,3,3h9.6
				c1.7,0,3-1.4,3-3V17.1C26.2,16.9,26.1,16.7,25.9,16.6z M24.7,28.2c0,0.9-0.7,1.6-1.6,1.6h-9.6c-0.9,0-1.6-0.7-1.6-1.6V15.1
				c0-0.9,0.7-1.6,1.6-1.6h7.2l0,0v2c0,0,0.2,1.9,2,1.9c1.1,0,1.7,0,1.9,0l0.1,0.1V28.2z"/>
		</g>
		<path class="st1" d="M25.8,8.7H15.5c-1.4,0-2.5,1-2.9,2.2h1.5c0.3-0.5,0.8-0.8,1.3-0.8h10.4c0.8,0,1.5,0.7,1.5,1.5v13.2
			c0,0.8-0.7,1.5-1.5,1.5h0v1.4h0c1.6,0,2.9-1.3,2.9-2.9V11.7C28.8,10.1,27.5,8.7,25.8,8.7z"/>
	</g>
</g>
</svg>
