<?xml version="1.0" encoding="utf-8"?>
<!-- Generator: Adobe Illustrator 23.0.2, SVG Export Plug-In . SVG Version: 6.00 Build 0)  -->
<svg version="1.1" id="Layer_1" xmlns="http://www.w3.org/2000/svg" xmlns:xlink="http://www.w3.org/1999/xlink" x="0px" y="0px"
	 viewBox="0 0 40 40" style="enable-background:new 0 0 40 40;" xml:space="preserve">
<style type="text/css">
	.st0{fill:#FFBD38;}
	.st1{fill:#FFFFFF;}
</style>
<circle class="st0" cx="20" cy="20" r="20"/>
<path class="st1" d="M27,11.7H13c-0.8,0-1.4,0.6-1.4,1.4V27c0,0.8,0.6,1.4,1.4,1.4H27c0.8,0,1.4-0.6,1.4-1.4V13
	C28.3,12.3,27.7,11.7,27,11.7z M16.8,26.1c0,0.2-0.2,0.4-0.4,0.4h-1.9c-0.2,0-0.4-0.2-0.4-0.4v-7.9c0-0.2,0.2-0.4,0.4-0.4h1.9
	c0.2,0,0.4,0.2,0.4,0.4V26.1z M15.4,17.1c-1,0-1.8-0.8-1.8-1.8s0.8-1.8,1.8-1.8s1.8,0.8,1.8,1.8S16.4,17.1,15.4,17.1z M26.6,26.1
	c0,0.2-0.2,0.4-0.4,0.4h-2c-0.2,0-0.4-0.2-0.4-0.4v-4.6c0,0-0.1-1.6-1.4-1.6s-1.5,1.7-1.5,2.1v4c0,0.3-0.2,0.5-0.5,0.5h-1.9
	c-0.3,0-0.5-0.2-0.5-0.5v-7.9c0-0.3,0.2-0.5,0.5-0.5h1.9c0.3,0,0.5,0.2,0.5,0.5v0.6c0.2-0.4,0.9-1.2,2.7-1.2c2.3,0,3.1,1.9,3.1,3.1
	V26.1z"/>
</svg>