<?xml version="1.0" encoding="utf-8"?>
<!-- Generator: Adobe Illustrator 23.0.2, SVG Export Plug-In . SVG Version: 6.00 Build 0)  -->
<svg version="1.1" id="Layer_1" xmlns="http://www.w3.org/2000/svg" xmlns:xlink="http://www.w3.org/1999/xlink" x="0px" y="0px"
	 viewBox="0 0 40.5 40.5" style="enable-background:new 0 0 40.5 40.5;" xml:space="preserve">
<style type="text/css">
	.st0{fill:#FFFFFF;}
</style>
<g>
	<path class="st0" d="M18.2,19.6c0,0,2-0.7,2-3S18.7,13,15.6,13s-7,0-7,0v14.5h7.1c0,0,5.1,0.2,5.1-4.2
		C20.9,20.3,18.2,19.6,18.2,19.6z M11.8,15.4h3c0,0,2.2-0.2,2.2,1.7s-2.2,1.7-2.2,1.7h-3.1L11.8,15.4L11.8,15.4z M15.3,25.1h-3.5V21
		h3.7c0,0,2.2-0.1,2.2,2S15.3,25.1,15.3,25.1z"/>
	<rect x="23.7" y="13.7" class="st0" width="5.8" height="1.6"/>
	<path class="st0" d="M31.8,22.7c0.2-3.4-1.7-6.3-5-6.3c-4.1,0-5.4,3.4-5.4,5.4c0,0.2,0,0.3,0,0.3c0,2.3,1.3,5.5,5.5,5.5
		s4.8-3.6,4.8-3.6h-2.5c-0.4,1.4-2.3,1.4-2.3,1.4c-2.8,0-2.6-2.5-2.6-2.7C24.5,22.7,31.8,22.7,31.8,22.7z M24.2,20.9
		c0,0,0.1-2.3,2.4-2.3s2.3,2.3,2.3,2.3H24.2z"/>
</g>
</svg>
