<?xml version="1.0" encoding="utf-8"?>
<!-- Generator: Adobe Illustrator 23.0.2, SVG Export Plug-In . SVG Version: 6.00 Build 0)  -->
<svg version="1.1" id="Layer_1" xmlns="http://www.w3.org/2000/svg" xmlns:xlink="http://www.w3.org/1999/xlink" x="0px" y="0px"
	 viewBox="0 0 324.7 111.4" style="enable-background:new 0 0 324.7 111.4;" xml:space="preserve">
<style type="text/css">
	.st0{fill:#FA640D;}
</style>
<g>
	<g>
		<path class="st0" d="M123.9,7c-4,3.1-7,4.9-9.2,7.4c-10.1,11-20.1,22.2-30,33.5c-5,5.7-9.5,11.9-14.5,17.7c-1.7,1.9-3.8,3.7-6,4.8
			c-3.5,1.8-6.5,0-6.8-4c-0.2-2.8,0.2-5.7,0.6-8.5c0.9-6.3,2.1-12.6,2.8-18.9c0.4-3.2,0.1-6.4,0.1-10.8c-2.4,1.9-4.1,3.1-5.5,4.5
			c-14.1,14-25.9,29.9-34.9,47.9c-1.1,2.2-1.6,4.9-1.8,7.5c-0.3,3.6-1.8,5.7-5.3,6.3c-1.5,0.3-2.9,0.7-4.3,1.2
			c-5.4,1.6-9-0.8-8.9-6.6c0-4.1,0.7-8.4,1.7-12.4c4.1-16,8-24.5,6.8-31.2c-0.6-3,1.4-5.8,4.2-6.7c1.7-0.5,4.7-0.3,5.7,0.9
			c1.3,1.5,1.9,4.4,1.6,6.5c-0.3,2.5-2.3,4.7-2.9,7.2c-4.3,16.4,0.6-2.4-3.5,14c-0.2,0.8-0.2,1.7,0.4,3c1-1.4,2-2.8,2.9-4.3
			c8.2-13.8,17.6-26.6,29-37.8c3.1-3,6.4-5.9,10.1-8c6.5-3.7,12.3-0.5,12.7,7.2c0.2,5.2-0.7,10.5-1.5,15.7c-0.8,5.6-2,11.1-1.9,17.2
			c2.3-3.1,4.7-6.1,7-9.2c8.1-10.3,15.8-20.8,24.3-30.7c5.1-5.9,11-11,17-16.1c3.6-3.1,8-5.8,12.9-3.3c5.1,2.6,5.1,8,4.9,12.8
			c-0.5,11.4-1.7,22.8-2.6,34.3c-1,12.3-1.5,24.7,0.7,36.9c0.8,4.3,2.1,8.6,3.8,12.5c2.6,6,7.5,9.3,13.9,8.5
			c4.6-0.5,9.4-1.5,13.6-3.4c7.4-3.4,14.6-7.4,21.5-11.7c13.7-8.6,27.1-17.8,39-28.9c2.8-2.6,11.2-13.6,13.9-11
			c2.4,1.9,0.5,4.3-1.4,7.5c-5.1,7.8-47.1,39-71.6,49.5c-4.1,1.7-8.6,2.9-13,3.3c-9.3,1-16.6-3.1-20.1-12c-2.5-6.4-4-13.5-4.9-20.4
			c-2.1-15.2-0.1-30.4,0.7-45.5c0.3-5.9,0.5-11.9,0.5-17.8C125.3,13.2,124.6,10.8,123.9,7z"/>
		<path class="st0" d="M315.9,62.1c-1.5,1.5-40.7,25.6-66,27.6c-5.8,0.5-12-0.4-17.6-2.1c-6.9-2.1-10.7-7.3-10.7-15.4
			c0-4.8,0.8-8.7,3.5-12.8c3.6-5.5,7-11.1,12.2-15.2c2.7-2.1,5.8-3.8,9-4.9c3.9-1.3,8,0.7,10.1,4c2.3,3.6,2.1,7.4-0.4,10.5
			c-2.4,3-5.2,6-8.5,7.9c-7,4.2-14.3,7.7-22.1,11.8c0.4,6.7,2.6,9.7,8.9,11.8c8,2.7,16.2,1.7,24.1-0.4c19.3-5.1,36.8-14.2,53.1-25.6
			c2.4-1.7,4.4-4.2,6.5-6.3c3-3,4.4-3.7,6.4-1.6C326.3,53.6,320.2,59.2,315.9,62.1z M231.8,60c6.6-2.1,12.4-5.5,16.4-11.8
			C240.5,48.8,235.9,54.1,231.8,60z"/>
	</g>
</g>
</svg>
