<?xml version="1.0" encoding="utf-8"?>
<!-- Generator: Adobe Illustrator 23.0.2, SVG Export Plug-In . SVG Version: 6.00 Build 0)  -->
<svg version="1.1" id="Layer_1" xmlns="http://www.w3.org/2000/svg" xmlns:xlink="http://www.w3.org/1999/xlink" x="0px" y="0px"
	 viewBox="0 0 1075.7 423.2" style="enable-background:new 0 0 1075.7 423.2;" xml:space="preserve">
<style type="text/css">
	.st0{fill:#F57600;}
	.st1{fill:url(#SVGID_1_);}
	.st2{fill:url(#SVGID_2_);}
	.st3{fill:url(#SVGID_3_);}
	.st4{fill:url(#SVGID_4_);}
	.st5{fill:url(#SVGID_5_);}
	.st6{fill:url(#SVGID_6_);}
	.st7{fill:url(#SVGID_7_);}
	.st8{fill:url(#SVGID_8_);}
	.st9{fill:url(#SVGID_9_);}
</style>
<g>
	<g>
		<path class="st0" d="M248.9,97.4c-6.2,25-17.1,48-30.2,70.1c-16.9,28.3-37.5,53.7-62.4,75.3c-8.8,7.6-18,14.8-28.6,19.6
			c-4.2,1.9-8.7,3.2-13.3,3.7c-7.4,0.8-12.5-2.4-15.3-9.4c-1.4-3.4-2.1-7.1-2.6-10.7c-0.4-2.8,1-5.1,4.1-5.5c3.1-0.5,4.8,1.3,5.6,4
			c0.7,2.4,0.9,5,1.7,7.5c1.5,4.5,4,6.2,8.5,5c4.2-1.1,8.5-2.6,12.3-4.8c5.6-3.2,11.2-6.7,16.3-10.7c43.8-35.1,75.5-79,94.6-131.8
			c4.8-13.4,8.1-27.2,7.6-41.6c-0.2-4.6-0.7-9.3-1.9-13.7c-3.5-12.7-13.4-19.5-26.6-18.8c-7.8,0.4-15.3,2.6-21.8,6.7
			c-9.6,6-19.2,12.2-27.9,19.5c-25.8,21.6-47.3,47.2-66.7,74.5C75.7,173.3,75,175,61.7,218.6c-15,49.1-26.9,99-37.8,149.1
			c-1.8,8.2-3.7,16.3-5.7,24.4c-1.3,5.1-3.1,6.8-6.6,6.7c-5.3,0-9.2-2.3-9.6-7.2c-1-11.5-2.3-23.2-1.8-34.7
			c1.2-27.4,8.5-53.6,17.5-79.3c13.2-37.6,31.1-73,51.7-107c3.1-5.1,5.7-10.7,7.7-16.3c12.8-36.3,25.4-72.8,42-107.6
			c5.7-11.9,12.7-23.2,19.6-34.5c2.4-3.9,5.8-7.3,9.5-10.1c6.1-4.7,12-1.7,12.7,5.9c0.2,1.8,0.1,3.7-0.1,5.5
			c-0.4,2.7-1.7,4.9-4.5,5.6c-2.8,0.7-5-0.3-6.5-2.8c-0.4-0.8-0.9-1.5-2.2-4c-5.4,7.8-10.7,14.1-14.4,21.2
			c-7.9,15.2-15.6,30.6-22.4,46.4c-7.5,17.5-13.8,35.5-20.6,53.2c-0.8,2.1-1.3,4.2-0.9,6.8c1.5-2,3-4.1,4.4-6.1
			c19.6-27.5,41.2-53.3,67.1-75.2c8.5-7.2,17.7-13.5,27-19.6c7.8-5.1,16.6-8.3,25.9-9.7c18.3-2.8,33.2,7.2,37.5,25.2
			C254.4,69.1,252.4,83.3,248.9,97.4z M57.8,209.5c-0.5,0.5-1.1,0.9-1.4,1.5c-20.3,38.8-36.8,79-44.7,122.4
			c-2.3,12.8-3.9,25.7-2.8,38.8c0.2,1.8,0.8,3.6,1.2,5.4c0.5,0.1,1,0.2,1.5,0.3c0.3-0.6,0.8-1.2,0.9-1.8
			C27,320.4,41.3,264.8,57.8,209.5z"/>
		<path class="st0" d="M335.7,226.7c-1.5,1-3.4,1.7-5.1,1.9c-14.7,1.5-29.5,3.2-44.3,4c-13.2,0.7-25.8-2.4-37-9.9
			c-0.7-0.5-1.6-0.7-2.4-1.1c-2.2,9-4.1,17.8-6.5,26.5c-3.2,11.2-7.5,22-14.3,31.5c-2.9,4.1-6.5,7.9-10.2,11.3
			c-3,2.7-6.8,4.3-10.9,2.1c-3.7-2-4.7-5.6-4.7-9.5c0-2.5,0.2-5.1,0.7-7.6c4.6-21,11.8-41,22.8-59.4c2.3-3.8,4.9-7.3,7.8-10.6
			c1.6-1.9,3.8-3.6,6-4.5c5.1-2.1,10.6,1.4,9.9,6.8c-0.6,5,1.8,7.3,5.1,9.6c7.9,5.5,16.8,8.5,26.2,7.8c12.9-0.9,25.7-2.9,38.6-4.8
			c4.5-0.7,8.9-2.4,13.3-3.8c3.3-1,6-0.3,7.1,2.3C339.1,222.3,338.3,225,335.7,226.7z M236,215.5c-12.3,11.7-29.2,56-25.4,66.3
			C222.7,270,238,230.1,236,215.5z"/>
		<path class="st0" d="M342.7,213.3c2.1,0.3,3.9,0.5,5.6,0.7c7.3,1.1,12.3,6.4,10.7,10.9c-4.1,11.3-8.9,19.5-13.3,30.8
			c-4.1,10.6-8.1,21.2-12,31.9c-0.9,2.5-0.7,10.5,6.7,4.7c5.5-4.6,11.2-9.2,15.9-14.5c12-13.3,23.7-26.8,35.1-40.5
			c4.1-5,7.2-10.8,10.8-16.2c0.6-1,4.9-7.5,7.5-6c2.6,1.5,2.3,4.3,0.9,7.7c-1.4,3.2-45.6,56-57.7,67.2c-4.3,4-8.9,8.7-14.3,11.2
			c-8.3,3.8-13.3-0.4-11.7-9.4c0.7-4.1,2-8.1,3.5-12c5.9-15.4,10.9-27.9,16.8-43.3c2.5-6.5,4.4-15.2-0.5-15.3
			c-3.7-0.1-7.4,0.2-11.1,0.6c-4.4,0.5-8.3-0.6-11.7-3.3c-3.9-3-5.5-6.9-4.4-11.7c1.9-8,6.3-14.4,13.4-18.7c3.1-1.9,6.5-2.7,9.9-0.8
			c3.8,2.1,4.6,5.9,3.9,9.7C345.8,202.2,344.2,207.3,342.7,213.3z M334,202.3c-6.2,4.4-6.8,6-4.2,10
			C331.3,208.7,332.6,205.5,334,202.3z"/>
		<path class="st0" d="M729,95.4c0.1,2.9-2.3,5.1-6.3,4.8c-5.1-0.3-10.1-1.1-15.2-1.5c-28.7-2.6-57.3-6.1-86-7.4
			c-25.9-1.1-52-0.4-77.9,0.7c-26.2,1.1-52.3,3.8-78.4,5.7c-4,0.3-6.8,1.4-8.5,5.6c-21.3,51.5-42,103.2-54.9,157.6
			c-2.6,11-4.4,22.3-5.9,33.6c-0.7,5-0.2,10.2,0.6,15.2c1.2,7.5,4.8,9.4,11.9,6.5c4.2-1.8,8.4-4.1,12-6.9
			c8.2-6.1,16.4-12.2,23.9-19.1c19.4-17.7,38.5-35.7,57.4-53.8c5.3-5.1,9.8-11.1,14.7-16.7c0.6-0.7,1.1-1.8,1.8-2.1
			c1.9-0.5,2.7-1.5,4.3-1c2.5,0.9,3,3.1,2.1,5.5c-0.6,1.5-7.9,9.1-9.7,10.9c-26,24.6-49.7,47.9-77.6,70.2
			c-5.6,4.5-11.5,8.7-17.4,12.7c-3.3,2.2-6.8,4-10.5,5.4c-9.5,3.6-15.9,0.2-18.4-9.5c-2.2-8.5-1.7-17-0.7-25.6
			c3-24.8,9.6-48.7,16.7-72.5c10.7-35.8,24.2-70.7,37.7-105.5c0.9-2.3,1.7-4.7,2.9-8.1c-5.6,0.4-10.1,0.7-14.6,1.1
			c-20.3,1.7-40.7,3.6-61,5.2c-3.9,0.3-7.9,0.1-11.8-0.4c-5.3-0.7-8.2-3.5-8.5-7.7c-0.3-4.4,3.1-10.7,6.7-12.2
			c2.4-1.1,4.6-0.6,6.3,1.3c1.7,2,1.9,4.4,0.2,6.4c-1.3,1.5-3.3,2.5-5.3,3.9c4.1,4.1,8.1,3.8,11.8,4.1c5.1,0.4,10.2,0.4,15.3,0.1
			c20.6-1.2,41.2-2.6,61.8-4c2.7-6,5-11.6,7.7-16.9c1.3-2.6,3-5.3,5.2-7.3c3.3-3,8.2-2.3,10.4,1c2.2,3.3,1.3,6.7-3.1,9.1
			c-4.8,2.6-5.9,7.3-8.6,12.6c9.5-0.7,17.9-1.4,26.4-2c18.7-1.3,37.5-2.6,56.2-3.9c39-2.6,77.9-1.8,116.9-1
			c16.5,0.3,32.9,1.3,49.4,1.9c4.6,0.2,9.3,0.2,13.9,0.2C726.8,91.4,728.8,92.6,729,95.4z"/>
		<path class="st0" d="M612,233.6c-1.2,1.3-2.8,2.4-4.3,3.4c-12.1,8.4-25.4,14.4-39.3,19.1c-21.1,7.1-42.2,14.1-63.4,20.9
			c-7.6,2.5-11.9,8.1-11.3,16.5c0.3,5.1,1.1,10.2,1.2,15.2c0.2,16.8-2.2,33.4-5.8,49.7c-3.3,15.1-7.6,30.1-12,45
			c-1.6,5.2-4.5,10.1-7.2,15c-1.7,3.1-4.5,5.6-8.5,4.6c-3.7-0.9-4.6-4.2-5.3-7.5c-1.7-8.1-0.5-16.2,0.9-24.2
			c4.4-25,12.8-48.9,20.9-72.8c2-5.9,3.8-12,6.5-17.6c3.2-6.6,1.7-12.6-0.9-18.7c-0.4-0.8-1-1.6-1.4-2.4c-1.8-3.8-0.5-6.3,3.8-6.5
			c2.7-0.1,5.5,0.4,8.9,0.7c2.1-4.8,3.8-9.1,5.9-13.3c9.3-19,18.5-38,28-56.8c3.1-6.2,7.3-11.9,11.2-17.6c1.5-2.3,3.5-4.4,5.5-6.2
			c4.2-3.9,8.8-4,11.7-0.7c3,3.4,2.8,10.3-0.4,13.5c-2.7,2.7-5.2,2.5-11.4-1.2c-2.8,3.7-5.9,7.4-8.5,11.4
			c-11.7,17.9-21.3,37-30.2,56.4c-1.8,4-3.5,8-5.8,13.2c3.1-0.3,5.5-0.3,7.8-0.8c24.9-5.8,49-14.2,71.9-25.6
			c8-4,14.7-10.4,21.9-15.8c1.5-1.1,2.7-3,4.3-3.4c1.7-0.4,4.1,0,5.5,1C613.9,229.5,613.6,231.9,612,233.6z M486.1,309.9
			c-0.8,1.8-1.4,2.9-1.8,4.2c-6.4,20.3-13.3,40.5-19,61c-2.8,10.4-3.5,21.4-4.8,32.2c-0.3,3,0.7,6.1,1.2,9.8
			C473.1,406.5,490.5,328.8,486.1,309.9z"/>
		<path class="st0" d="M724.2,226.7c-1.5,1-3.4,1.7-5.1,1.9c-14.7,1.5-29.5,3.2-44.3,4c-13.2,0.7-25.8-2.4-37-9.9
			c-0.7-0.5-1.6-0.7-2.4-1.1c-2.2,9-4.1,17.8-6.5,26.5c-3.2,11.2-7.5,22-14.3,31.5c-2.9,4.1-6.5,7.9-10.2,11.3
			c-3,2.7-6.8,4.3-10.9,2.1c-3.7-2-4.7-5.6-4.7-9.5c0-2.5,0.2-5.1,0.7-7.6c4.6-21,11.8-41,22.8-59.4c2.3-3.8,4.9-7.3,7.8-10.6
			c1.6-1.9,3.8-3.6,6-4.5c5.1-2.1,10.6,1.4,9.9,6.8c-0.6,5,1.8,7.3,5.1,9.6c7.9,5.5,16.8,8.5,26.2,7.8c12.9-0.9,25.7-2.9,38.6-4.8
			c4.5-0.7,8.9-2.4,13.3-3.8c3.3-1,6-0.3,7.1,2.3C727.6,222.3,726.8,225,724.2,226.7z M624.5,215.5c-12.3,11.7-29.2,56-25.4,66.3
			C611.2,270,626.5,230.1,624.5,215.5z"/>
		<path class="st0" d="M725.4,245.8c0,3.6-0.2,7.2,0.3,10.7c0.2,3.6,1,7,1.8,10.4c1.1,3.2,2.2,6.8,3.8,9.1c1.8,2.3,4.2,3.9,7.1,4.8
			c2.9,1,6.4,1,9.7,0.9c6.9-0.5,13.9-2.4,20.7-4.8c27.2-9.2,73.2-60.4,80.6-61.1c3.4-0.4,1,4-1.2,6.1c-1.1,1-43.5,42.9-67.6,56.8
			c-7.2,3.3-13.9,6.2-19.5,8c-5.6,1.8-11.8,2.6-17.8,2.7c-11.3,0.3-18.8-5.7-22.1-16.5c-1.9-6.4-2.3-12.8-1.9-19.3
			c-0.1-2.7,0-5.4,0-8.1c0.1-3.8,0.7-7.6,1-11.4c0.3-2.2,0.8-4.5,1.3-6.7c-0.4-0.2,2.2-12.5,3.3-13.4c2.4-7.9,5.3-15.7,8.8-23.2
			c6.3-13.7,13.6-27,22.1-39.4c1.2-1.8,2.4-3.5,3.6-5.3c12-19.7,26.2-38,43-54.6c8.2-8.1,17.6-15,27-21.8c3.8-2.7,8.8-4.3,13.5-5.2
			c6.7-1.3,12.1,2.2,13.6,8.9c1,4.4,0.9,9.2,0.2,13.7c-1.4,9-5.5,17.2-10,25.1c-9.7,17.1-21.8,32.3-35.5,46.3
			c-22.2,22.7-47.5,41.5-74.2,58.5c-4.7,3-7.8,6.7-9.3,11.5c-0.4,2.1-0.9,4.3-1.3,6.4C726,238.6,725.5,242.2,725.4,245.8z
			 M829.2,78.4c-4.3,3.3-8.7,6.5-13,9.9C795.9,108.9,777,130.9,761,155c-3.4,4.9-6.5,9.9-9.5,15.1c-5.7,10.8-10.9,21.8-15.5,33.3
			c-0.4,1-0.6,2-1.2,4.1c2.3-1.4,3.8-2,5-2.9c15.2-11.8,30.9-23.1,45.6-35.5c19.6-16.5,36.7-35.6,50-57.6
			c4.4-7.3,7.9-15.2,11.2-23.1c1.3-3.1,1.7-6.8,1.7-10.2c0-4.9-2.7-6.9-7.3-5.4C836.9,74.1,832.7,75.8,829.2,78.4z"/>
		<path class="st0" d="M959.8,227.2c-7.7,5.6-56.8,43.5-86.8,49.7c-2.7,0.6-5.5,0.7-9.9,1.1c-3-0.7-7.7-1.3-11.9-3
			c-7.6-3-12.6-8.8-13.8-17c-2-13.8,1.9-26.7,7.3-39.2c0.2-0.4,0.5-0.8,0.8-1.2c2.5-3.2,6.4-4,9.1-1.8c2.6,2.1,3,5.5,0.2,8.6
			c-6.1,6.7-8.1,15-9.8,23.4c-0.3,1.4-0.4,2.8-0.5,4.1c-0.5,10.8,5.6,17.9,16.3,18.4c4.8,0.2,9.8-0.5,14.4-1.7
			c26.9-7.1,53.4-27.5,75.9-45.8c1.8-1.1,3.5-2.3,5.4-3.1c2.3-0.9,3.6-1.8,5.1,0.6C963,222.7,961.6,225.4,959.8,227.2z M864,184.4
			c-2.4-2.9-1.9-6-0.4-9.1c1.6-3.4,3.1-6.8,7.3-7.3c3.7-0.1,6.3,3,5.5,6.6c-0.6,2.9-1.5,5.8-2.7,8.6
			C871.9,187.2,866.9,187.8,864,184.4z"/>
		<path class="st0" d="M1073.1,226.7c-1.5,1-3.4,1.7-5.1,1.9c-14.7,1.5-29.5,3.2-44.3,4c-13.2,0.7-25.8-2.4-37-9.9
			c-0.7-0.5-1.6-0.7-2.4-1.1c-2.2,9-4.1,17.8-6.5,26.5c-3.2,11.2-7.5,22-14.3,31.5c-2.9,4.1-6.5,7.9-10.2,11.3
			c-3,2.7-6.8,4.3-10.9,2.1c-3.7-2-4.7-5.6-4.7-9.5c0-2.5,0.2-5.1,0.7-7.6c4.6-21,11.8-41,22.8-59.4c2.3-3.8,4.9-7.3,7.8-10.6
			c1.6-1.9,3.8-3.6,6-4.5c5.1-2.1,10.6,1.4,9.9,6.8c-0.6,5,1.8,7.3,5.1,9.6c7.9,5.5,16.8,8.5,26.2,7.8c12.9-0.9,25.7-2.9,38.6-4.8
			c4.5-0.7,8.9-2.4,13.3-3.8c3.3-1,6-0.3,7.1,2.3C1076.4,222.3,1075.7,225,1073.1,226.7z M973.4,215.5c-12.3,11.7-29.2,56-25.4,66.3
			C960,270,975.4,230.1,973.4,215.5z"/>
	</g>
	<g>
		<linearGradient id="SVGID_1_" gradientUnits="userSpaceOnUse" x1="0" y1="211.6027" x2="1075.748" y2="211.6027">
			<stop  offset="0" style="stop-color:#FD7616"/>
			<stop  offset="1" style="stop-color:#FE910E"/>
		</linearGradient>
		<path class="st1" d="M248.9,97.4c-6.2,25-17.1,48-30.2,70.1c-16.9,28.3-37.5,53.7-62.4,75.3c-8.8,7.6-18,14.8-28.6,19.6
			c-4.2,1.9-8.7,3.2-13.3,3.7c-7.4,0.8-12.5-2.4-15.3-9.4c-1.4-3.4-2.1-7.1-2.6-10.7c-0.4-2.8,1-5.1,4.1-5.5c3.1-0.5,4.8,1.3,5.6,4
			c0.7,2.4,0.9,5,1.7,7.5c1.5,4.5,4,6.2,8.5,5c4.2-1.1,8.5-2.6,12.3-4.8c5.6-3.2,11.2-6.7,16.3-10.7c43.8-35.1,75.5-79,94.6-131.8
			c4.8-13.4,8.1-27.2,7.6-41.6c-0.2-4.6-0.7-9.3-1.9-13.7c-3.5-12.7-13.4-19.5-26.6-18.8c-7.8,0.4-15.3,2.6-21.8,6.7
			c-9.6,6-19.2,12.2-27.9,19.5c-25.8,21.6-47.3,47.2-66.7,74.5C75.7,173.3,75,175,61.7,218.6c-15,49.1-26.9,99-37.8,149.1
			c-1.8,8.2-3.7,16.3-5.7,24.4c-1.3,5.1-3.1,6.8-6.6,6.7c-5.3,0-9.2-2.3-9.6-7.2c-1-11.5-2.3-23.2-1.8-34.7
			c1.2-27.4,8.5-53.6,17.5-79.3c13.2-37.6,31.1-73,51.7-107c3.1-5.1,5.7-10.7,7.7-16.3c12.8-36.3,25.4-72.8,42-107.6
			c5.7-11.9,12.7-23.2,19.6-34.5c2.4-3.9,5.8-7.3,9.5-10.1c6.1-4.7,12-1.7,12.7,5.9c0.2,1.8,0.1,3.7-0.1,5.5
			c-0.4,2.7-1.7,4.9-4.5,5.6c-2.8,0.7-5-0.3-6.5-2.8c-0.4-0.8-0.9-1.5-2.2-4c-5.4,7.8-10.7,14.1-14.4,21.2
			c-7.9,15.2-15.6,30.6-22.4,46.4c-7.5,17.5-13.8,35.5-20.6,53.2c-0.8,2.1-1.3,4.2-0.9,6.8c1.5-2,3-4.1,4.4-6.1
			c19.6-27.5,41.2-53.3,67.1-75.2c8.5-7.2,17.7-13.5,27-19.6c7.8-5.1,16.6-8.3,25.9-9.7c18.3-2.8,33.2,7.2,37.5,25.2
			C254.4,69.1,252.4,83.3,248.9,97.4z M57.8,209.5c-0.5,0.5-1.1,0.9-1.4,1.5c-20.3,38.8-36.8,79-44.7,122.4
			c-2.3,12.8-3.9,25.7-2.8,38.8c0.2,1.8,0.8,3.6,1.2,5.4c0.5,0.1,1,0.2,1.5,0.3c0.3-0.6,0.8-1.2,0.9-1.8
			C27,320.4,41.3,264.8,57.8,209.5z"/>
		<linearGradient id="SVGID_2_" gradientUnits="userSpaceOnUse" x1="0" y1="211.6027" x2="1075.748" y2="211.6027">
			<stop  offset="0" style="stop-color:#FD7616"/>
			<stop  offset="1" style="stop-color:#FE910E"/>
		</linearGradient>
		<path class="st2" d="M335.7,226.7c-1.5,1-3.4,1.7-5.1,1.9c-14.7,1.5-29.5,3.2-44.3,4c-13.2,0.7-25.8-2.4-37-9.9
			c-0.7-0.5-1.6-0.7-2.4-1.1c-2.2,9-4.1,17.8-6.5,26.5c-3.2,11.2-7.5,22-14.3,31.5c-2.9,4.1-6.5,7.9-10.2,11.3
			c-3,2.7-6.8,4.3-10.9,2.1c-3.7-2-4.7-5.6-4.7-9.5c0-2.5,0.2-5.1,0.7-7.6c4.6-21,11.8-41,22.8-59.4c2.3-3.8,4.9-7.3,7.8-10.6
			c1.6-1.9,3.8-3.6,6-4.5c5.1-2.1,10.6,1.4,9.9,6.8c-0.6,5,1.8,7.3,5.1,9.6c7.9,5.5,16.8,8.5,26.2,7.8c12.9-0.9,25.7-2.9,38.6-4.8
			c4.5-0.7,8.9-2.4,13.3-3.8c3.3-1,6-0.3,7.1,2.3C339.1,222.3,338.3,225,335.7,226.7z M236,215.5c-12.3,11.7-29.2,56-25.4,66.3
			C222.7,270,238,230.1,236,215.5z"/>
		<linearGradient id="SVGID_3_" gradientUnits="userSpaceOnUse" x1="0" y1="211.6027" x2="1075.748" y2="211.6027">
			<stop  offset="0" style="stop-color:#FD7616"/>
			<stop  offset="1" style="stop-color:#FE910E"/>
		</linearGradient>
		<path class="st3" d="M342.7,213.3c2.1,0.3,3.9,0.5,5.6,0.7c7.3,1.1,12.3,6.4,10.7,10.9c-4.1,11.3-8.9,19.5-13.3,30.8
			c-4.1,10.6-8.1,21.2-12,31.9c-0.9,2.5-0.7,10.5,6.7,4.7c5.5-4.6,11.2-9.2,15.9-14.5c12-13.3,23.7-26.8,35.1-40.5
			c4.1-5,7.2-10.8,10.8-16.2c0.6-1,4.9-7.5,7.5-6c2.6,1.5,2.3,4.3,0.9,7.7c-1.4,3.2-45.6,56-57.7,67.2c-4.3,4-8.9,8.7-14.3,11.2
			c-8.3,3.8-13.3-0.4-11.7-9.4c0.7-4.1,2-8.1,3.5-12c5.9-15.4,10.9-27.9,16.8-43.3c2.5-6.5,4.4-15.2-0.5-15.3
			c-3.7-0.1-7.4,0.2-11.1,0.6c-4.4,0.5-8.3-0.6-11.7-3.3c-3.9-3-5.5-6.9-4.4-11.7c1.9-8,6.3-14.4,13.4-18.7c3.1-1.9,6.5-2.7,9.9-0.8
			c3.8,2.1,4.6,5.9,3.9,9.7C345.8,202.2,344.2,207.3,342.7,213.3z M334,202.3c-6.2,4.4-6.8,6-4.2,10
			C331.3,208.7,332.6,205.5,334,202.3z"/>
		<linearGradient id="SVGID_4_" gradientUnits="userSpaceOnUse" x1="0" y1="211.6027" x2="1075.748" y2="211.6027">
			<stop  offset="0" style="stop-color:#FD7616"/>
			<stop  offset="1" style="stop-color:#FE910E"/>
		</linearGradient>
		<path class="st4" d="M729,95.4c0.1,2.9-2.3,5.1-6.3,4.8c-5.1-0.3-10.1-1.1-15.2-1.5c-28.7-2.6-57.3-6.1-86-7.4
			c-25.9-1.1-52-0.4-77.9,0.7c-26.2,1.1-52.3,3.8-78.4,5.7c-4,0.3-6.8,1.4-8.5,5.6c-21.3,51.5-42,103.2-54.9,157.6
			c-2.6,11-4.4,22.3-5.9,33.6c-0.7,5-0.2,10.2,0.6,15.2c1.2,7.5,4.8,9.4,11.9,6.5c4.2-1.8,8.4-4.1,12-6.9
			c8.2-6.1,16.4-12.2,23.9-19.1c19.4-17.7,38.5-35.7,57.4-53.8c5.3-5.1,9.8-11.1,14.7-16.7c0.6-0.7,1.1-1.8,1.8-2.1
			c1.9-0.5,2.7-1.5,4.3-1c2.5,0.9,3,3.1,2.1,5.5c-0.6,1.5-7.9,9.1-9.7,10.9c-26,24.6-49.7,47.9-77.6,70.2
			c-5.6,4.5-11.5,8.7-17.4,12.7c-3.3,2.2-6.8,4-10.5,5.4c-9.5,3.6-15.9,0.2-18.4-9.5c-2.2-8.5-1.7-17-0.7-25.6
			c3-24.8,9.6-48.7,16.7-72.5c10.7-35.8,24.2-70.7,37.7-105.5c0.9-2.3,1.7-4.7,2.9-8.1c-5.6,0.4-10.1,0.7-14.6,1.1
			c-20.3,1.7-40.7,3.6-61,5.2c-3.9,0.3-7.9,0.1-11.8-0.4c-5.3-0.7-8.2-3.5-8.5-7.7c-0.3-4.4,3.1-10.7,6.7-12.2
			c2.4-1.1,4.6-0.6,6.3,1.3c1.7,2,1.9,4.4,0.2,6.4c-1.3,1.5-3.3,2.5-5.3,3.9c4.1,4.1,8.1,3.8,11.8,4.1c5.1,0.4,10.2,0.4,15.3,0.1
			c20.6-1.2,41.2-2.6,61.8-4c2.7-6,5-11.6,7.7-16.9c1.3-2.6,3-5.3,5.2-7.3c3.3-3,8.2-2.3,10.4,1c2.2,3.3,1.3,6.7-3.1,9.1
			c-4.8,2.6-5.9,7.3-8.6,12.6c9.5-0.7,17.9-1.4,26.4-2c18.7-1.3,37.5-2.6,56.2-3.9c39-2.6,77.9-1.8,116.9-1
			c16.5,0.3,32.9,1.3,49.4,1.9c4.6,0.2,9.3,0.2,13.9,0.2C726.8,91.4,728.8,92.6,729,95.4z"/>
		<linearGradient id="SVGID_5_" gradientUnits="userSpaceOnUse" x1="0" y1="211.6027" x2="1075.748" y2="211.6027">
			<stop  offset="0" style="stop-color:#FD7616"/>
			<stop  offset="1" style="stop-color:#FE910E"/>
		</linearGradient>
		<path class="st5" d="M612,233.6c-1.2,1.3-2.8,2.4-4.3,3.4c-12.1,8.4-25.4,14.4-39.3,19.1c-21.1,7.1-42.2,14.1-63.4,20.9
			c-7.6,2.5-11.9,8.1-11.3,16.5c0.3,5.1,1.1,10.2,1.2,15.2c0.2,16.8-2.2,33.4-5.8,49.7c-3.3,15.1-7.6,30.1-12,45
			c-1.6,5.2-4.5,10.1-7.2,15c-1.7,3.1-4.5,5.6-8.5,4.6c-3.7-0.9-4.6-4.2-5.3-7.5c-1.7-8.1-0.5-16.2,0.9-24.2
			c4.4-25,12.8-48.9,20.9-72.8c2-5.9,3.8-12,6.5-17.6c3.2-6.6,1.7-12.6-0.9-18.7c-0.4-0.8-1-1.6-1.4-2.4c-1.8-3.8-0.5-6.3,3.8-6.5
			c2.7-0.1,5.5,0.4,8.9,0.7c2.1-4.8,3.8-9.1,5.9-13.3c9.3-19,18.5-38,28-56.8c3.1-6.2,7.3-11.9,11.2-17.6c1.5-2.3,3.5-4.4,5.5-6.2
			c4.2-3.9,8.8-4,11.7-0.7c3,3.4,2.8,10.3-0.4,13.5c-2.7,2.7-5.2,2.5-11.4-1.2c-2.8,3.7-5.9,7.4-8.5,11.4
			c-11.7,17.9-21.3,37-30.2,56.4c-1.8,4-3.5,8-5.8,13.2c3.1-0.3,5.5-0.3,7.8-0.8c24.9-5.8,49-14.2,71.9-25.6
			c8-4,14.7-10.4,21.9-15.8c1.5-1.1,2.7-3,4.3-3.4c1.7-0.4,4.1,0,5.5,1C613.9,229.5,613.6,231.9,612,233.6z M486.1,309.9
			c-0.8,1.8-1.4,2.9-1.8,4.2c-6.4,20.3-13.3,40.5-19,61c-2.8,10.4-3.5,21.4-4.8,32.2c-0.3,3,0.7,6.1,1.2,9.8
			C473.1,406.5,490.5,328.8,486.1,309.9z"/>
		<linearGradient id="SVGID_6_" gradientUnits="userSpaceOnUse" x1="0" y1="211.6027" x2="1075.748" y2="211.6027">
			<stop  offset="0" style="stop-color:#FD7616"/>
			<stop  offset="1" style="stop-color:#FE910E"/>
		</linearGradient>
		<path class="st6" d="M724.2,226.7c-1.5,1-3.4,1.7-5.1,1.9c-14.7,1.5-29.5,3.2-44.3,4c-13.2,0.7-25.8-2.4-37-9.9
			c-0.7-0.5-1.6-0.7-2.4-1.1c-2.2,9-4.1,17.8-6.5,26.5c-3.2,11.2-7.5,22-14.3,31.5c-2.9,4.1-6.5,7.9-10.2,11.3
			c-3,2.7-6.8,4.3-10.9,2.1c-3.7-2-4.7-5.6-4.7-9.5c0-2.5,0.2-5.1,0.7-7.6c4.6-21,11.8-41,22.8-59.4c2.3-3.8,4.9-7.3,7.8-10.6
			c1.6-1.9,3.8-3.6,6-4.5c5.1-2.1,10.6,1.4,9.9,6.8c-0.6,5,1.8,7.3,5.1,9.6c7.9,5.5,16.8,8.5,26.2,7.8c12.9-0.9,25.7-2.9,38.6-4.8
			c4.5-0.7,8.9-2.4,13.3-3.8c3.3-1,6-0.3,7.1,2.3C727.6,222.3,726.8,225,724.2,226.7z M624.5,215.5c-12.3,11.7-29.2,56-25.4,66.3
			C611.2,270,626.5,230.1,624.5,215.5z"/>
		<linearGradient id="SVGID_7_" gradientUnits="userSpaceOnUse" x1="0" y1="211.6027" x2="1075.748" y2="211.6027">
			<stop  offset="0" style="stop-color:#FD7616"/>
			<stop  offset="1" style="stop-color:#FE910E"/>
		</linearGradient>
		<path class="st7" d="M725.4,245.8c0,3.6-0.2,7.2,0.3,10.7c0.2,3.6,1,7,1.8,10.4c1.1,3.2,2.2,6.8,3.8,9.1c1.8,2.3,4.2,3.9,7.1,4.8
			c2.9,1,6.4,1,9.7,0.9c6.9-0.5,13.9-2.4,20.7-4.8c27.2-9.2,73.2-60.4,80.6-61.1c3.4-0.4,1,4-1.2,6.1c-1.1,1-43.5,42.9-67.6,56.8
			c-7.2,3.3-13.9,6.2-19.5,8c-5.6,1.8-11.8,2.6-17.8,2.7c-11.3,0.3-18.8-5.7-22.1-16.5c-1.9-6.4-2.3-12.8-1.9-19.3
			c-0.1-2.7,0-5.4,0-8.1c0.1-3.8,0.7-7.6,1-11.4c0.3-2.2,0.8-4.5,1.3-6.7c-0.4-0.2,2.2-12.5,3.3-13.4c2.4-7.9,5.3-15.7,8.8-23.2
			c6.3-13.7,13.6-27,22.1-39.4c1.2-1.8,2.4-3.5,3.6-5.3c12-19.7,26.2-38,43-54.6c8.2-8.1,17.6-15,27-21.8c3.8-2.7,8.8-4.3,13.5-5.2
			c6.7-1.3,12.1,2.2,13.6,8.9c1,4.4,0.9,9.2,0.2,13.7c-1.4,9-5.5,17.2-10,25.1c-9.7,17.1-21.8,32.3-35.5,46.3
			c-22.2,22.7-47.5,41.5-74.2,58.5c-4.7,3-7.8,6.7-9.3,11.5c-0.4,2.1-0.9,4.3-1.3,6.4C726,238.6,725.5,242.2,725.4,245.8z
			 M829.2,78.4c-4.3,3.3-8.7,6.5-13,9.9C795.9,108.9,777,130.9,761,155c-3.4,4.9-6.5,9.9-9.5,15.1c-5.7,10.8-10.9,21.8-15.5,33.3
			c-0.4,1-0.6,2-1.2,4.1c2.3-1.4,3.8-2,5-2.9c15.2-11.8,30.9-23.1,45.6-35.5c19.6-16.5,36.7-35.6,50-57.6
			c4.4-7.3,7.9-15.2,11.2-23.1c1.3-3.1,1.7-6.8,1.7-10.2c0-4.9-2.7-6.9-7.3-5.4C836.9,74.1,832.7,75.8,829.2,78.4z"/>
		<linearGradient id="SVGID_8_" gradientUnits="userSpaceOnUse" x1="0" y1="211.6027" x2="1075.748" y2="211.6027">
			<stop  offset="0" style="stop-color:#FD7616"/>
			<stop  offset="1" style="stop-color:#FE910E"/>
		</linearGradient>
		<path class="st8" d="M959.8,227.2c-7.7,5.6-56.8,43.5-86.8,49.7c-2.7,0.6-5.5,0.7-9.9,1.1c-3-0.7-7.7-1.3-11.9-3
			c-7.6-3-12.6-8.8-13.8-17c-2-13.8,1.9-26.7,7.3-39.2c0.2-0.4,0.5-0.8,0.8-1.2c2.5-3.2,6.4-4,9.1-1.8c2.6,2.1,3,5.5,0.2,8.6
			c-6.1,6.7-8.1,15-9.8,23.4c-0.3,1.4-0.4,2.8-0.5,4.1c-0.5,10.8,5.6,17.9,16.3,18.4c4.8,0.2,9.8-0.5,14.4-1.7
			c26.9-7.1,53.4-27.5,75.9-45.8c1.8-1.1,3.5-2.3,5.4-3.1c2.3-0.9,3.6-1.8,5.1,0.6C963,222.7,961.6,225.4,959.8,227.2z M864,184.4
			c-2.4-2.9-1.9-6-0.4-9.1c1.6-3.4,3.1-6.8,7.3-7.3c3.7-0.1,6.3,3,5.5,6.6c-0.6,2.9-1.5,5.8-2.7,8.6
			C871.9,187.2,866.9,187.8,864,184.4z"/>
		<linearGradient id="SVGID_9_" gradientUnits="userSpaceOnUse" x1="0" y1="211.6027" x2="1075.748" y2="211.6027">
			<stop  offset="0" style="stop-color:#FD7616"/>
			<stop  offset="1" style="stop-color:#FE910E"/>
		</linearGradient>
		<path class="st9" d="M1073.1,226.7c-1.5,1-3.4,1.7-5.1,1.9c-14.7,1.5-29.5,3.2-44.3,4c-13.2,0.7-25.8-2.4-37-9.9
			c-0.7-0.5-1.6-0.7-2.4-1.1c-2.2,9-4.1,17.8-6.5,26.5c-3.2,11.2-7.5,22-14.3,31.5c-2.9,4.1-6.5,7.9-10.2,11.3
			c-3,2.7-6.8,4.3-10.9,2.1c-3.7-2-4.7-5.6-4.7-9.5c0-2.5,0.2-5.1,0.7-7.6c4.6-21,11.8-41,22.8-59.4c2.3-3.8,4.9-7.3,7.8-10.6
			c1.6-1.9,3.8-3.6,6-4.5c5.1-2.1,10.6,1.4,9.9,6.8c-0.6,5,1.8,7.3,5.1,9.6c7.9,5.5,16.8,8.5,26.2,7.8c12.9-0.9,25.7-2.9,38.6-4.8
			c4.5-0.7,8.9-2.4,13.3-3.8c3.3-1,6-0.3,7.1,2.3C1076.4,222.3,1075.7,225,1073.1,226.7z M973.4,215.5c-12.3,11.7-29.2,56-25.4,66.3
			C960,270,975.4,230.1,973.4,215.5z"/>
	</g>
</g>
</svg>
